<?xml version="1.0" encoding="UTF-8"?>
<svg width="24px" height="16px" viewBox="0 0 24 16" version="1.1" xmlns="http://www.w3.org/2000/svg" xmlns:xlink="http://www.w3.org/1999/xlink">
    <!-- Generator: Sketch 53 (72520) - https://sketchapp.com -->
    <title>Cassette</title>
    <desc>Created with Sketch.</desc>
    <g id="Symbols" stroke="none" stroke-width="1" fill="none" fill-rule="evenodd">
        <g id="download" transform="translate(-138.000000, -52.000000)">
            <g id="Cassette" transform="translate(138.000000, 52.000000)">
                <g>
                    <path d="M1.5,0 L22,0 C22.8284271,-1.52179594e-16 23.5,0.671572875 23.5,1.5 L23.5,14.25 C23.5,15.0784271 22.8284271,15.75 22,15.75 L1.5,15.75 C0.671572875,15.75 1.01453063e-16,15.0784271 0,14.25 L-2.22044605e-16,1.5 C-3.23497668e-16,0.671572875 0.671572875,1.52179594e-16 1.5,0 Z M6.125,11.5 C7.02246272,11.5 7.75,10.7724627 7.75,9.875 C7.75,8.97753728 7.02246272,8.25 6.125,8.25 C5.22753728,8.25 4.5,8.97753728 4.5,9.875 C4.5,10.7724627 5.22753728,11.5 6.125,11.5 Z M17.625,11.5 C18.5224627,11.5 19.25,10.7724627 19.25,9.875 C19.25,8.97753728 18.5224627,8.25 17.625,8.25 C16.7275373,8.25 16,8.97753728 16,9.875 C16,10.7724627 16.7275373,11.5 17.625,11.5 Z" id="Combined-Shape" fill="#4A99F0"></path>
                    <path d="M5.875,7.5 L17.875,7.5 C19.1866763,7.5 20.25,8.56332372 20.25,9.875 C20.25,11.1866763 19.1866763,12.25 17.875,12.25 L5.875,12.25 C4.56332372,12.25 3.5,11.1866763 3.5,9.875 C3.5,8.56332372 4.56332372,7.5 5.875,7.5 Z M6.125,11.5 C7.02246272,11.5 7.75,10.7724627 7.75,9.875 C7.75,8.97753728 7.02246272,8.25 6.125,8.25 C5.22753728,8.25 4.5,8.97753728 4.5,9.875 C4.5,10.7724627 5.22753728,11.5 6.125,11.5 Z M17.625,11.5 C18.5224627,11.5 19.25,10.7724627 19.25,9.875 C19.25,8.97753728 18.5224627,8.25 17.625,8.25 C16.7275373,8.25 16,8.97753728 16,9.875 C16,10.7724627 16.7275373,11.5 17.625,11.5 Z" id="Combined-Shape" fill="#FFFFFF"></path>
                    <path d="M9,8.25 L15,8.25 C14.7756732,8.96990924 14.6635099,9.51157591 14.6635099,9.875 C14.6635099,10.2384241 14.7756732,10.7800908 15,11.5 L9,11.5 C9.2313527,10.7988266 9.34702905,10.2571599 9.34702905,9.875 C9.34702905,9.49284006 9.2313527,8.95117339 9,8.25 Z" id="Rectangle" fill="#4A99F0"></path>
                    <polygon id="Rectangle" fill="#FFFFFF" points="4.85769061 0.121070723 18.4881975 0.121070723 17.625 2.41257988 6.125 2.41257988"></polygon>
                </g>
            </g>
        </g>
    </g>
</svg>