<?xml version="1.0" encoding="UTF-8"?>
<svg width="25px" height="24px" viewBox="0 0 25 24" version="1.1" xmlns="http://www.w3.org/2000/svg" xmlns:xlink="http://www.w3.org/1999/xlink">
    <!-- Generator: Sketch 53 (72520) - https://sketchapp.com -->
    <title>CD</title>
    <desc>Created with Sketch.</desc>
    <g id="Symbols" stroke="none" stroke-width="1" fill="none" fill-rule="evenodd">
        <g id="download" transform="translate(-78.000000, -47.000000)">
            <g id="CD" transform="translate(78.000000, 47.000000)">
                <g transform="translate(-3.714286, -4.178571)" id="Combined-Shape">
                    <path d="M16.1339286,27.8571429 C9.6593761,27.8571429 4.41071429,22.608481 4.41071429,16.1339286 C4.41071429,9.6593761 9.6593761,4.41071429 16.1339286,4.41071429 C22.608481,4.41071429 27.8571429,9.6593761 27.8571429,16.1339286 C27.8571429,22.608481 22.608481,27.8571429 16.1339286,27.8571429 Z M16.1339286,18.3392857 C17.3519137,18.3392857 18.3392857,17.3519137 18.3392857,16.1339286 C18.3392857,14.9159435 17.3519137,13.9285714 16.1339286,13.9285714 C14.9159435,13.9285714 13.9285714,14.9159435 13.9285714,16.1339286 C13.9285714,17.3519137 14.9159435,18.3392857 16.1339286,18.3392857 Z" fill="#FFFFFF" transform="translate(16.133929, 16.133929) rotate(-330.000000) translate(-16.133929, -16.133929) "></path>
                    <path d="M16.1339286,20.6607143 C13.6338539,20.6607143 11.6071429,18.6340033 11.6071429,16.1339286 C11.6071429,13.6338539 13.6338539,11.6071429 16.1339286,11.6071429 C18.6340033,11.6071429 20.6607143,13.6338539 20.6607143,16.1339286 C20.6607143,18.6340033 18.6340033,20.6607143 16.1339286,20.6607143 Z M16.1339286,19.5 C17.9929585,19.5 19.5,17.9929585 19.5,16.1339286 C19.5,14.2748987 17.9929585,12.7678571 16.1339286,12.7678571 C14.2748987,12.7678571 12.7678571,14.2748987 12.7678571,16.1339286 C12.7678571,17.9929585 14.2748987,19.5 16.1339286,19.5 Z" fill="#4A99F0" transform="translate(16.133929, 16.133929) rotate(-330.000000) translate(-16.133929, -16.133929) "></path>
                    <path d="M18.6526667,5.37788844 L19.7449942,13.3777692 L19.9947417,5.31982513 C20.7465385,5.3297283 21.4812599,5.41039819 22.1925486,5.55547766 L19.7211063,13.6759308 L17.2638557,5.60210734 C17.7174248,5.5005224 18.1809227,5.42522182 18.6526666,5.37788832 Z" fill="#4A99F0" transform="translate(19.728202, 9.497871) rotate(-330.000000) translate(-19.728202, -9.497871) "></path>
                    <path d="M11.3082916,18.5325648 L12.4006191,26.5324456 L12.6503665,18.4745015 C13.4021634,18.4844047 14.1368848,18.5650746 14.8481735,18.710154 L12.3767312,26.8306072 L9.91948059,18.7567837 C10.3730497,18.6551988 10.8365476,18.5798982 11.3082915,18.5325647 Z" fill="#4A99F0" transform="translate(12.383827, 22.652548) rotate(-150.000000) translate(-12.383827, -22.652548) "></path>
                </g>
            </g>
        </g>
    </g>
</svg>