<?xml version="1.0" encoding="UTF-8"?>
<svg width="26px" height="26px" viewBox="0 0 26 26" version="1.1" xmlns="http://www.w3.org/2000/svg" xmlns:xlink="http://www.w3.org/1999/xlink">
    <!-- Generator: Sketch 53 (72520) - https://sketchapp.com -->
    <title>Vinyl</title>
    <desc>Created with Sketch.</desc>
    <g id="Symbols" stroke="none" stroke-width="1" fill="none" fill-rule="evenodd">
        <g id="download" transform="translate(-107.000000, -47.000000)">
            <g id="Vinyl" transform="translate(107.000000, 47.000000)">
                <g id="Combined-Shape">
                    <path d="M12.625,25.25 C5.65240503,25.25 0,19.597595 0,12.625 C0,5.65240503 5.65240503,0 12.625,0 C19.597595,0 25.25,5.65240503 25.25,12.625 C25.25,19.597595 19.597595,25.25 12.625,25.25 Z M12.75,14.25 C13.3022847,14.25 13.75,13.8022847 13.75,13.25 C13.75,12.6977153 13.3022847,12.25 12.75,12.25 C12.1977153,12.25 11.75,12.6977153 11.75,13.25 C11.75,13.8022847 12.1977153,14.25 12.75,14.25 Z" fill="#4A99F0"></path>
                    <path d="M12.625,18.75 C9.51839828,18.75 7,16.2316017 7,13.125 C7,10.0183983 9.51839828,7.5 12.625,7.5 C15.7316017,7.5 18.25,10.0183983 18.25,13.125 C18.25,16.2316017 15.7316017,18.75 12.625,18.75 Z M12.75,14.25 C13.3022847,14.25 13.75,13.8022847 13.75,13.25 C13.75,12.6977153 13.3022847,12.25 12.75,12.25 C12.1977153,12.25 11.75,12.6977153 11.75,13.25 C11.75,13.8022847 12.1977153,14.25 12.75,14.25 Z" fill="#FFFFFF"></path>
                    <path d="M5.25,3.89058938 C6.20056412,3.60768767 7.20754108,3.45577137 8.25,3.45577137 C9.20153499,3.45577137 10.1235076,3.58234289 11,3.81956806 L11,4.3386514 C10.1262992,4.08928866 9.20374192,3.95577137 8.25,3.95577137 C7.20479429,3.95577137 6.19704122,4.11612519 5.25,4.41357365 L5.25,3.89058938 Z M11,5.8386514 C10.1262992,5.58928866 9.20374192,5.45577137 8.25,5.45577137 C7.20479429,5.45577137 6.19704122,5.61612519 5.25,5.91357365 L5.25,5.39058938 C6.20056412,5.10768767 7.20754108,4.95577137 8.25,4.95577137 C9.20153499,4.95577137 10.1235076,5.08234289 11,5.31956806 L11,5.8386514 Z" fill="#FFFFFF" transform="translate(8.125000, 4.684673) rotate(-30.000000) translate(-8.125000, -4.684673) "></path>
                    <path d="M14.25,19.4790467 C15.2005641,19.1961449 16.2075411,19.0442286 17.25,19.0442286 C18.201535,19.0442286 19.1235076,19.1708002 20,19.4080253 L20,19.9271087 C19.1262992,19.6777459 18.2037419,19.5442286 17.25,19.5442286 C16.2047943,19.5442286 15.1970412,19.7045825 14.25,20.0020309 L14.25,19.4790467 Z M20,21.4271087 C19.1262992,21.1777459 18.2037419,21.0442286 17.25,21.0442286 C16.2047943,21.0442286 15.1970412,21.2045825 14.25,21.5020309 L14.25,20.9790467 C15.2005641,20.6961449 16.2075411,20.5442286 17.25,20.5442286 C18.201535,20.5442286 19.1235076,20.6708002 20,20.9080253 L20,21.4271087 Z" fill="#FFFFFF" transform="translate(17.125000, 20.273130) scale(1, -1) rotate(-330.000000) translate(-17.125000, -20.273130) "></path>
                </g>
            </g>
        </g>
    </g>
</svg>