<?xml version="1.0" encoding="UTF-8"?>
<!DOCTYPE svg PUBLIC "-//W3C//DTD SVG 1.1//EN" "http://www.w3.org/Graphics/SVG/1.1/DTD/svg11.dtd">
<svg version="1.1" xmlns="http://www.w3.org/2000/svg" xmlns:xlink="http://www.w3.org/1999/xlink" x="0" y="0" width="1242" height="1242" viewBox="0, 0, 1242, 1242">
  <defs>
    <linearGradient id="Gradient_1" gradientUnits="userSpaceOnUse" x1="624" y1="1248" x2="624" y2="-0">
      <stop offset="0" stop-color="#4A9AF1"/>
      <stop offset="1" stop-color="#2D7AD0"/>
    </linearGradient>
    <clipPath id="Clip_1">
      <path d="M142.777,611.657 L578.017,611.657 L578.017,946.877 L142.777,946.877 z M422.41,661.657 L336.549,747.518 L223.246,747.518 C221.563,747.16 219.821,746.96 218.018,746.96 C205.711,746.96 195.495,755.773 193.245,767.432 L192.777,767.432 L192.777,876.962 L193.533,876.962 C195.903,886.84 204.048,894.387 214.225,895.941 L214.225,896.877 L383.498,896.877 L383.498,896.269 C400.813,896.06 415.66,886.232 423.346,871.944 L528.017,767.273 L422.41,661.657 z"/>
    </clipPath>
    <filter id="Shadow_2">
      <feGaussianBlur in="SourceAlpha" stdDeviation="24.5"/>
      <feOffset dx="0" dy="0" result="offsetblur"/>
      <feFlood flood-color="#FFFFFF"/>
      <feComposite in2="offsetblur" operator="in"/>
    </filter>
    <clipPath id="Clip_3">
      <path d="M548.634,250.008 L1140.472,250.008 L1140.472,641.04 L548.634,641.04 z M892.35,300.028 C888.402,300.848 890.034,300.271 887.354,301.434 C883.092,303.614 880.503,308.025 880.503,312.845 L880.523,368.595 L732.001,368.595 L732.001,368.854 C721.387,369.452 711.798,373.594 704.31,380.185 L704.101,379.976 L598.634,485.423 L704.25,591.04 L777.346,517.944 L880.583,517.944 L880.603,577.737 C880.603,582.527 883.301,586.938 887.573,589.148 C891.845,591.359 896.992,590.97 900.916,588.162 L1085.881,455.273 C1089.247,452.873 1090.472,448.99 1090.472,444.858 L1090.472,444.828 C1090.462,440.676 1089.217,436.802 1085.831,434.403 L900.487,302.37 C897.88,300.765 895.496,299.863 892.35,300.028 z"/>
    </clipPath>
    <filter id="Shadow_4">
      <feGaussianBlur in="SourceAlpha" stdDeviation="24.5"/>
      <feOffset dx="0" dy="0" result="offsetblur"/>
      <feFlood flood-color="#FFFFFF"/>
      <feComposite in2="offsetblur" operator="in"/>
    </filter>
    <clipPath id="Clip_5">
      <path d="M142,304.765 L1139.705,304.765 L1139.705,1001.664 L142,1001.664 z M382.731,354.765 L213.458,354.765 L213.458,355.701 C203.282,357.254 195.137,364.802 192.767,374.679 L192,374.679 L192,484.209 L192.488,484.209 C194.728,495.869 204.954,504.681 217.262,504.681 C219.054,504.681 220.796,504.482 222.489,504.123 L335.783,504.123 L703.334,871.675 L703.543,871.466 C711.041,878.057 720.63,882.2 731.244,882.797 L731.244,883.056 L879.766,883.056 L879.747,938.807 C879.747,943.626 882.335,948.047 886.597,950.218 C890.869,952.438 895.818,952.08 899.731,949.292 L1085.075,817.258 C1088.46,814.849 1089.705,810.976 1089.705,806.813 L1089.705,806.773 C1089.695,802.641 1088.47,798.748 1085.105,796.348 L900.139,663.469 C896.216,660.661 891.068,660.293 886.806,662.483 C882.535,664.704 879.836,669.105 879.836,673.894 L879.816,733.687 L776.57,733.687 L422.57,379.688 C414.883,365.399 400.037,355.581 382.731,355.372 L382.731,354.765 z"/>
    </clipPath>
    <filter id="Shadow_6">
      <feGaussianBlur in="SourceAlpha" stdDeviation="24.5"/>
      <feOffset dx="0" dy="0" result="offsetblur"/>
      <feFlood flood-color="#FFFFFF"/>
      <feComposite in2="offsetblur" operator="in"/>
    </filter>
  </defs>
  <g id="Layer_1">
    <path d="M0,-0 L1248,-0 L1248,1248 L0,1248 L0,-0 z" fill="url(#Gradient_1)"/>
    <g>
      <g>
        <path d="M336.549,747.518 L223.246,747.518 C221.563,747.16 219.821,746.96 218.018,746.96 C205.711,746.96 195.495,755.773 193.245,767.433 L192.777,767.433 L192.777,876.962 L193.533,876.962 C195.903,886.84 204.048,894.387 214.225,895.941 L214.225,896.877 L383.498,896.877 L383.498,896.269 C400.813,896.06 415.66,886.232 423.347,871.944 L528.017,767.273 L422.411,661.657 L336.549,747.518 z" fill="#FFFFFF"/>
        <g>
          <path d="M422.41,661.657 L528.017,767.273 L423.346,871.944 C415.66,886.232 400.813,896.06 383.498,896.269 L383.498,896.877 L214.225,896.877 L214.225,895.941 C204.048,894.387 195.903,886.84 193.533,876.962 L192.777,876.962 L192.777,767.432 L193.245,767.432 C195.495,755.773 205.711,746.96 218.018,746.96 C219.821,746.96 221.563,747.16 223.246,747.518 L336.549,747.518 L422.41,661.657 z" fill="rgba(0,0,0,0.152)" clip-path="url(#Clip_1)" filter="url(#Shadow_2)"/>
          <path d="M413.748,670.318 L519.355,775.935 L519.355,758.611 L414.684,863.282 C413.84,864.126 413.124,865.089 412.559,866.14 C406.727,876.979 395.69,883.871 383.35,884.02 C376.642,884.101 371.248,889.561 371.248,896.269 L371.248,896.877 L383.498,896.877 L383.498,884.627 L214.225,884.627 L214.225,896.877 L226.475,896.877 L226.475,895.941 C226.475,889.889 222.055,884.744 216.073,883.831 C210.857,883.035 206.662,879.176 205.445,874.104 C204.124,868.596 199.198,864.712 193.533,864.712 L192.777,864.712 L192.777,876.962 L205.027,876.962 L205.027,767.432 L192.777,767.432 L192.777,779.682 L193.245,779.682 C199.115,779.682 204.16,775.518 205.273,769.754 C206.447,763.668 211.773,759.21 218.018,759.21 C218.903,759.21 219.79,759.307 220.694,759.499 C221.533,759.678 222.388,759.768 223.246,759.768 L336.549,759.768 C339.798,759.768 342.914,758.477 345.211,756.18 L431.073,670.319 L413.748,670.318 z M431.073,652.995 C426.289,648.211 418.533,648.211 413.748,652.995 L327.887,738.856 L336.549,735.268 L223.246,735.268 L223.246,747.518 L225.798,735.537 C223.241,734.992 220.646,734.71 218.019,734.71 C199.962,734.71 184.603,747.565 181.217,765.111 L193.245,767.432 L193.245,755.182 L192.777,755.182 C186.011,755.182 180.527,760.667 180.527,767.432 L180.527,876.962 C180.527,883.728 186.011,889.212 192.777,889.212 L193.533,889.212 L193.533,876.962 L181.621,879.82 C185.161,894.575 197.311,905.751 212.376,908.05 L214.225,895.941 L201.975,895.941 L201.975,896.877 C201.975,903.642 207.459,909.127 214.225,909.127 L383.498,909.127 C390.263,909.127 395.748,903.642 395.748,896.877 L395.748,896.269 L383.498,896.269 L383.645,908.518 C405.026,908.26 424.14,896.325 434.134,877.747 L432.009,880.606 L536.679,775.935 C541.463,771.151 541.463,763.396 536.679,758.612 L431.073,652.995 z" fill="rgba(0,0,0,0.152)" clip-path="url(#Clip_1)" filter="url(#Shadow_2)"/>
        </g>
      </g>
      <g>
        <path d="M1085.832,434.403 L900.487,302.37 C896.574,299.582 891.616,299.233 887.354,301.434 C883.092,303.614 880.503,308.025 880.503,312.845 L880.523,368.595 L732.001,368.595 L732.001,368.854 C721.387,369.452 711.798,373.594 704.31,380.186 L704.101,379.976 L598.634,485.424 L704.25,591.04 L777.346,517.944 L880.583,517.944 L880.603,577.737 C880.603,582.527 883.301,586.938 887.573,589.148 C891.845,591.359 896.992,590.97 900.916,588.162 L1085.881,455.273 C1089.247,452.873 1090.472,448.99 1090.472,444.858 C1090.472,444.828 1090.472,444.828 1090.472,444.828 C1090.462,440.676 1089.217,436.802 1085.832,434.403 z" fill="#FFFFFF"/>
        <g>
          <path d="M892.35,300.028 C895.496,299.863 897.88,300.765 900.487,302.37 L1085.831,434.403 C1089.217,436.802 1090.462,440.676 1090.472,444.828 L1090.472,444.858 C1090.472,448.99 1089.247,452.873 1085.881,455.273 L900.916,588.162 C896.992,590.97 891.845,591.359 887.573,589.148 C883.301,586.938 880.603,582.527 880.603,577.737 L880.583,517.944 L777.346,517.944 L704.25,591.04 L598.634,485.423 L704.101,379.976 L704.31,380.185 C711.798,373.594 721.387,369.452 732.001,368.854 L732.001,368.595 L880.523,368.595 L880.503,312.845 C880.503,308.025 883.092,303.614 887.354,301.434 C890.034,300.271 888.402,300.848 892.35,300.028 z" fill="rgba(0,0,0,0.152)" clip-path="url(#Clip_3)" filter="url(#Shadow_4)"/>
          <path d="M892.992,312.261 C893.091,312.256 893.036,312.249 893.01,312.241 C893.158,312.287 893.482,312.443 894.068,312.803 L900.487,302.37 L893.38,312.347 L1078.724,444.38 C1078.438,444.177 1078.183,443.848 1078.089,443.62 C1078.147,443.76 1078.22,444.182 1078.222,444.857 L1078.222,444.858 C1078.222,445.532 1078.149,445.957 1078.091,446.1 C1078.185,445.869 1078.445,445.53 1078.77,445.299 L893.768,578.214 C893.592,578.34 893.372,578.356 893.203,578.268 C892.988,578.157 892.853,577.936 892.853,577.737 L892.833,517.94 C892.831,511.176 887.347,505.694 880.583,505.694 L777.346,505.694 C774.097,505.694 770.981,506.985 768.684,509.282 L695.588,582.378 L712.912,582.378 L607.296,476.761 L607.295,494.086 L712.762,388.639 L704.101,379.976 L695.439,388.638 L695.648,388.848 C700.218,393.418 707.553,393.651 712.404,389.38 C718.021,384.435 725.059,381.514 732.689,381.085 C739.177,380.72 744.251,375.352 744.251,368.854 L744.251,368.595 L732.001,368.595 L732.001,380.845 L880.523,380.845 C887.29,380.845 892.776,375.358 892.773,368.591 L892.753,312.84 C892.753,312.537 892.844,312.385 892.934,312.339 L887.354,301.434 L892.229,312.672 C892.674,312.478 893.495,312.115 893.529,312.101 C893.469,312.127 893.364,312.169 893.192,312.23 C892.905,312.333 892.604,312.424 892.307,312.497 C892.132,312.54 892.028,312.561 891.969,312.572 C892.018,312.563 892.43,312.49 892.438,312.488 C893.173,312.357 893.893,312.219 894.843,312.021 L892.35,300.028 L892.992,312.261 z M891.709,287.794 C891.087,287.827 890.468,287.907 889.858,288.034 C888.968,288.219 887.01,288.569 886.446,288.708 C885.501,288.941 884.748,289.21 883.891,289.577 C883.693,289.661 882.795,290.058 882.479,290.195 C882.24,290.299 882.005,290.41 881.773,290.528 C873.402,294.812 868.253,303.442 868.253,312.844 L868.273,368.6 L880.523,356.345 L732.001,356.345 C725.235,356.345 719.751,361.83 719.751,368.595 L719.751,368.854 L732.001,368.854 L731.312,356.623 C718.166,357.363 705.923,362.445 696.216,370.991 L704.31,380.185 L712.972,371.523 L712.763,371.314 C707.979,366.531 700.224,366.53 695.439,371.314 L589.972,476.761 C585.188,481.544 585.187,489.301 589.972,494.086 L695.588,599.702 C700.372,604.486 708.128,604.486 712.912,599.702 L786.008,526.606 L777.346,530.194 L880.583,530.194 L868.333,517.948 L868.353,577.741 C868.353,587.112 873.61,595.716 881.943,600.028 C890.308,604.356 900.384,603.607 908.045,598.124 L1093.029,465.222 C1099.716,460.454 1102.722,453.063 1102.722,444.857 L1102.722,444.828 C1102.702,436.576 1099.662,429.191 1092.915,424.409 L907.595,292.392 C907.371,292.233 907.141,292.08 906.906,291.936 C902.055,288.952 897.345,287.499 891.709,287.794 z" fill="rgba(0,0,0,0.152)" clip-path="url(#Clip_3)" filter="url(#Shadow_4)"/>
        </g>
      </g>
      <g>
        <path d="M1085.105,796.348 L900.139,663.469 C896.216,660.661 891.068,660.293 886.806,662.483 C882.535,664.704 879.836,669.105 879.836,673.894 L879.816,733.687 L776.57,733.687 L422.57,379.688 C414.883,365.399 400.037,355.581 382.731,355.372 L382.731,354.765 L213.458,354.765 L213.458,355.701 C203.282,357.254 195.137,364.802 192.767,374.679 L192,374.679 L192,484.209 L192.488,484.209 C194.728,495.869 204.954,504.681 217.262,504.681 C219.054,504.681 220.796,504.482 222.489,504.123 L335.783,504.123 L703.334,871.675 L703.543,871.466 C711.041,878.057 720.63,882.2 731.244,882.797 L731.244,883.056 L879.766,883.056 L879.747,938.807 C879.747,943.626 882.335,948.047 886.597,950.218 C890.869,952.438 895.818,952.08 899.731,949.292 L1085.075,817.259 C1088.46,814.849 1089.705,810.976 1089.705,806.813 C1089.705,806.813 1089.705,806.813 1089.705,806.774 C1089.695,802.641 1088.47,798.748 1085.105,796.348 z" fill="#FFFFFF"/>
        <g>
          <path d="M382.731,354.765 L382.731,355.372 C400.037,355.581 414.883,365.399 422.57,379.688 L776.57,733.687 L879.816,733.687 L879.836,673.894 C879.836,669.105 882.535,664.704 886.806,662.483 C891.068,660.293 896.216,660.661 900.139,663.469 L1085.105,796.348 C1088.47,798.748 1089.695,802.641 1089.705,806.773 L1089.705,806.813 C1089.705,810.976 1088.46,814.849 1085.075,817.258 L899.731,949.292 C895.818,952.08 890.869,952.438 886.597,950.218 C882.335,948.047 879.747,943.626 879.747,938.807 L879.766,883.056 L731.244,883.056 L731.244,882.797 C720.63,882.2 711.041,878.057 703.543,871.466 L703.334,871.675 L335.783,504.123 L222.489,504.123 C220.796,504.482 219.054,504.681 217.262,504.681 C204.954,504.681 194.728,495.869 192.488,484.209 L192,484.209 L192,374.679 L192.767,374.679 C195.137,364.802 203.282,357.254 213.458,355.701 L213.458,354.765 L382.731,354.765 z" fill="rgba(0,0,0,0.152)" clip-path="url(#Clip_5)" filter="url(#Shadow_6)"/>
          <path d="M370.481,354.765 L370.481,355.372 C370.481,362.08 375.876,367.54 382.583,367.621 C394.92,367.77 405.953,374.657 411.782,385.491 C412.347,386.543 413.064,387.506 413.908,388.35 L767.908,742.349 C770.205,744.647 773.321,745.937 776.57,745.937 L879.816,745.937 C886.58,745.937 892.064,740.455 892.066,733.691 L892.086,673.898 C892.086,673.696 892.222,673.474 892.456,673.352 C892.593,673.282 892.826,673.299 893.009,673.43 L1077.957,806.297 C1077.666,806.09 1077.408,805.753 1077.316,805.527 C1077.378,805.68 1077.453,806.117 1077.455,806.803 L1077.455,806.813 C1077.455,807.486 1077.383,807.905 1077.326,808.043 C1077.418,807.818 1077.67,807.493 1077.971,807.278 L892.623,939.314 C892.447,939.44 892.426,939.441 892.247,939.348 L892.157,939.302 C892.087,939.266 891.997,939.115 891.997,938.806 L892.016,883.06 C892.019,876.293 886.534,870.806 879.766,870.806 L731.244,870.806 L731.244,883.056 L743.494,883.056 L743.494,882.797 C743.494,876.299 738.42,870.931 731.932,870.566 C724.302,870.137 717.262,867.216 711.632,862.266 C706.78,858 699.449,858.236 694.881,862.804 L694.672,863.013 L703.334,871.675 L711.996,863.013 L344.445,495.461 C342.147,493.164 339.031,491.873 335.783,491.873 L222.489,491.873 C221.636,491.873 220.785,491.962 219.951,492.139 C219.03,492.334 218.139,492.431 217.262,492.431 C211.014,492.431 205.685,487.972 204.518,481.897 C203.409,476.129 198.362,471.959 192.488,471.959 L192,471.959 L192,484.209 L204.25,484.209 L204.25,374.679 L192,374.679 L192,386.929 L192.767,386.929 C198.431,386.929 203.357,383.045 204.679,377.537 C205.895,372.466 210.091,368.606 215.306,367.81 C221.289,366.897 225.708,361.752 225.708,355.701 L225.708,354.765 L213.458,354.765 L213.458,367.015 L382.731,367.015 L382.731,354.765 L370.481,354.765 z M394.981,354.765 C394.981,347.999 389.496,342.515 382.731,342.515 L213.458,342.515 C206.692,342.515 201.208,347.999 201.208,354.765 L201.208,355.701 L213.458,355.701 L211.609,343.591 C196.544,345.891 184.395,357.067 180.855,371.821 L192.767,374.679 L192.767,362.429 L192,362.429 C185.234,362.429 179.75,367.914 179.75,374.679 L179.75,484.209 C179.75,490.974 185.234,496.459 192,496.459 L192.488,496.459 L192.488,484.209 L180.458,486.52 C183.83,504.07 199.201,516.931 217.262,516.931 C219.877,516.931 222.466,516.65 225.027,516.107 L222.489,504.123 L222.489,516.373 L335.783,516.373 L327.12,512.785 L694.672,880.337 C699.456,885.121 707.212,885.121 711.996,880.337 L712.205,880.128 L703.543,871.466 L695.455,880.666 C705.172,889.209 717.413,894.288 730.556,895.028 L731.244,882.797 L718.994,882.797 L718.994,883.056 C718.994,889.821 724.479,895.306 731.244,895.306 L879.766,895.306 L867.516,883.052 L867.497,938.802 C867.497,948.216 872.652,956.862 881.037,961.133 L886.597,950.218 L880.947,961.087 C889.3,965.429 899.177,964.727 906.839,959.268 L1092.182,827.236 C1098.92,822.44 1101.955,815.043 1101.955,806.813 L1101.955,806.773 C1101.935,798.543 1098.933,791.163 1092.216,786.374 L907.286,653.52 C899.619,648.032 889.558,647.295 881.206,651.588 C872.837,655.939 867.586,664.525 867.586,673.894 L867.566,733.683 L879.816,721.437 L776.57,721.437 L785.232,725.025 L431.232,371.026 L433.358,373.884 C423.366,355.311 404.253,343.381 382.879,343.123 L382.731,355.372 L394.981,355.372 L394.981,354.765 z" fill="rgba(0,0,0,0.152)" clip-path="url(#Clip_5)" filter="url(#Shadow_6)"/>
        </g>
      </g>
    </g>
  </g>
</svg>
