<?xml version="1.0" encoding="UTF-8"?>
<!DOCTYPE svg PUBLIC "-//W3C//DTD SVG 1.1//EN" "http://www.w3.org/Graphics/SVG/1.1/DTD/svg11.dtd">
<svg version="1.1" xmlns="http://www.w3.org/2000/svg" xmlns:xlink="http://www.w3.org/1999/xlink" x="0" y="0" width="1242" height="2436" viewBox="0, 0, 1242, 2436">
  <defs>
    <linearGradient id="Gradient_1" gradientUnits="userSpaceOnUse" x1="624" y1="2436" x2="624" y2="-0">
      <stop offset="0" stop-color="#4A9AF1"/>
      <stop offset="1" stop-color="#2D7AD0"/>
    </linearGradient>
    <clipPath id="Clip_1">
      <path d="M394.344,1190.201 L642.844,1190.201 L642.844,1394.395 L394.344,1394.395 z M546.064,1240.201 L508.03,1278.234 L457.841,1278.234 C457.095,1278.076 456.323,1277.987 455.525,1277.987 C450.074,1277.987 445.548,1281.891 444.551,1287.056 L444.344,1287.056 L444.344,1335.573 L444.679,1335.573 C445.729,1339.949 449.337,1343.292 453.845,1343.98 L453.845,1344.395 L528.826,1344.395 L528.826,1344.126 C536.497,1344.033 543.073,1339.68 546.478,1333.35 L592.844,1286.985 L546.064,1240.201 z"/>
    </clipPath>
    <filter id="Shadow_2">
      <feGaussianBlur in="SourceAlpha" stdDeviation="24.5"/>
      <feOffset dx="0" dy="0" result="offsetblur"/>
      <feFlood flood-color="#FFFFFF"/>
      <feComposite in2="offsetblur" operator="in"/>
    </filter>
    <clipPath id="Clip_3">
      <path d="M574.124,1030.001 L891.991,1030.001 L891.991,1258.92 L574.124,1258.92 z M754.23,1080.012 C752.481,1080.376 753.204,1080.12 752.017,1080.635 C750.129,1081.601 748.982,1083.555 748.982,1085.69 L748.991,1110.385 L683.201,1110.385 L683.201,1110.5 C678.499,1110.765 674.252,1112.599 670.935,1115.519 L670.842,1115.427 L624.124,1162.136 L670.908,1208.92 L703.287,1176.541 L749.018,1176.541 L749.026,1203.027 C749.026,1205.149 750.222,1207.103 752.114,1208.082 C754.006,1209.061 756.286,1208.889 758.024,1207.646 L839.957,1148.78 C841.448,1147.717 841.991,1145.997 841.991,1144.167 L841.991,1144.153 C841.986,1142.314 841.435,1140.599 839.935,1139.536 L757.834,1081.05 C756.716,1080.362 755.578,1079.923 754.23,1080.012 z"/>
    </clipPath>
    <filter id="Shadow_4">
      <feGaussianBlur in="SourceAlpha" stdDeviation="24.5"/>
      <feOffset dx="0" dy="0" result="offsetblur"/>
      <feFlood flood-color="#FFFFFF"/>
      <feComposite in2="offsetblur" operator="in"/>
    </filter>
    <clipPath id="Clip_5">
      <path d="M394,1054.259 L891.651,1054.259 L891.651,1418.664 L394,1418.664 z M528.487,1104.259 L453.505,1104.259 L453.505,1104.673 C448.997,1105.361 445.389,1108.705 444.34,1113.08 L444,1113.08 L444,1161.598 L444.216,1161.598 C445.209,1166.763 449.738,1170.666 455.19,1170.666 C455.984,1170.666 456.756,1170.578 457.505,1170.419 L507.69,1170.419 L670.503,1333.231 L670.595,1333.139 C673.917,1336.059 678.164,1337.894 682.866,1338.158 L682.866,1338.273 L748.656,1338.273 L748.647,1362.968 C748.647,1365.103 749.794,1367.062 751.682,1368.023 C753.574,1369.007 755.766,1368.848 757.499,1367.613 L839.6,1309.127 C841.1,1308.06 841.651,1306.344 841.651,1304.5 L841.651,1304.483 C841.647,1302.652 841.104,1300.927 839.613,1299.865 L757.68,1241.004 C755.942,1239.76 753.662,1239.597 751.774,1240.567 C749.882,1241.551 748.687,1243.5 748.687,1245.622 L748.678,1272.108 L702.943,1272.108 L546.134,1115.299 C542.729,1108.969 536.153,1104.62 528.487,1104.528 L528.487,1104.259 z"/>
    </clipPath>
    <filter id="Shadow_6">
      <feGaussianBlur in="SourceAlpha" stdDeviation="24.5"/>
      <feOffset dx="0" dy="0" result="offsetblur"/>
      <feFlood flood-color="#FFFFFF"/>
      <feComposite in2="offsetblur" operator="in"/>
    </filter>
  </defs>
  <g id="Layer_1">
    <path d="M0,0 L1248,0 L1248,2436 L0,2436 L0,0 z" fill="url(#Gradient_1)"/>
    <g>
      <g>
        <path d="M508.03,1278.234 L457.841,1278.234 C457.095,1278.076 456.323,1277.987 455.525,1277.987 C450.074,1277.987 445.548,1281.891 444.551,1287.056 L444.344,1287.056 L444.344,1335.574 L444.679,1335.574 C445.729,1339.949 449.337,1343.292 453.845,1343.98 L453.845,1344.395 L528.827,1344.395 L528.827,1344.126 C536.497,1344.033 543.073,1339.68 546.478,1333.351 L592.844,1286.985 L546.064,1240.201 L508.03,1278.234 z" fill="#FFFFFF"/>
        <g>
          <path d="M546.064,1240.201 L592.844,1286.985 L546.478,1333.35 C543.073,1339.68 536.497,1344.033 528.826,1344.126 L528.826,1344.395 L453.845,1344.395 L453.845,1343.98 C449.337,1343.292 445.729,1339.949 444.679,1335.573 L444.344,1335.573 L444.344,1287.056 L444.551,1287.056 C445.548,1281.891 450.074,1277.987 455.525,1277.987 C456.323,1277.987 457.095,1278.076 457.841,1278.234 L508.03,1278.234 L546.064,1240.201 z" fill="rgba(0,0,0,0.152)" clip-path="url(#Clip_1)" filter="url(#Shadow_2)"/>
          <path d="M537.401,1248.863 L584.181,1295.647 L584.181,1278.323 L537.816,1324.688 C536.972,1325.533 536.256,1326.496 535.69,1327.547 C534.267,1330.193 531.628,1331.841 528.679,1331.877 C521.971,1331.958 516.576,1337.418 516.576,1344.126 L516.576,1344.395 L528.826,1344.395 L528.826,1332.145 L453.845,1332.145 L453.845,1344.395 L466.095,1344.395 L466.095,1343.98 C466.095,1337.929 461.675,1332.784 455.693,1331.87 C456.126,1331.937 456.483,1332.265 456.591,1332.715 C455.27,1327.207 450.344,1323.323 444.679,1323.323 L444.344,1323.323 L444.344,1335.573 L456.594,1335.573 L456.594,1287.056 L444.344,1287.056 L444.344,1299.306 L444.551,1299.306 C450.422,1299.306 455.467,1295.141 456.579,1289.377 C456.484,1289.873 456.048,1290.237 455.525,1290.237 C455.431,1290.237 455.349,1290.228 455.289,1290.216 C456.128,1290.394 456.983,1290.484 457.841,1290.484 L508.03,1290.484 C511.279,1290.484 514.395,1289.194 516.692,1286.896 L554.726,1248.863 L537.401,1248.863 z M554.726,1231.539 C549.942,1226.755 542.186,1226.755 537.402,1231.539 L499.368,1269.572 L508.03,1265.984 L457.841,1265.984 L457.841,1278.234 L460.392,1266.253 C458.8,1265.914 457.175,1265.738 455.526,1265.737 C444.237,1265.738 434.639,1273.77 432.523,1284.734 L444.551,1287.056 L444.551,1274.806 L444.344,1274.806 C437.579,1274.806 432.094,1280.29 432.094,1287.056 L432.094,1335.573 C432.094,1342.339 437.579,1347.823 444.344,1347.823 L444.679,1347.823 L444.679,1335.573 L432.767,1338.432 C434.982,1347.664 442.58,1354.653 451.996,1356.09 L453.845,1343.98 L441.595,1343.98 L441.595,1344.395 C441.595,1351.16 447.079,1356.645 453.845,1356.645 L528.826,1356.645 C535.592,1356.645 541.076,1351.16 541.076,1344.395 L541.076,1344.126 L528.826,1344.126 L528.974,1356.375 C540.963,1356.23 551.68,1349.538 557.266,1339.154 L546.478,1333.35 L555.14,1342.013 L601.506,1295.647 C606.289,1290.864 606.289,1283.108 601.506,1278.324 L554.726,1231.539 z" fill="rgba(0,0,0,0.152)" clip-path="url(#Clip_1)" filter="url(#Shadow_2)"/>
        </g>
      </g>
      <g>
        <path d="M839.935,1139.536 L757.835,1081.05 C756.101,1079.815 753.905,1079.66 752.017,1080.635 C750.129,1081.601 748.982,1083.555 748.982,1085.69 L748.991,1110.385 L683.201,1110.385 L683.201,1110.5 C678.499,1110.765 674.252,1112.599 670.935,1115.519 L670.842,1115.427 L624.124,1162.136 L670.908,1208.92 L703.287,1176.541 L749.018,1176.541 L749.026,1203.028 C749.026,1205.149 750.222,1207.103 752.114,1208.082 C754.006,1209.061 756.286,1208.889 758.024,1207.646 L839.957,1148.78 C841.448,1147.717 841.991,1145.997 841.991,1144.167 C841.991,1144.154 841.991,1144.154 841.991,1144.154 C841.986,1142.314 841.435,1140.599 839.935,1139.536 z" fill="#FFFFFF"/>
        <g>
          <path d="M754.23,1080.012 C755.578,1079.923 756.716,1080.362 757.834,1081.05 L839.935,1139.536 C841.435,1140.599 841.986,1142.314 841.991,1144.153 L841.991,1144.167 C841.991,1145.997 841.448,1147.717 839.957,1148.78 L758.024,1207.646 C756.286,1208.889 754.006,1209.061 752.114,1208.082 C750.222,1207.103 749.026,1205.149 749.026,1203.027 L749.018,1176.541 L703.287,1176.541 L670.908,1208.92 L624.124,1162.136 L670.842,1115.427 L670.935,1115.519 C674.252,1112.599 678.499,1110.765 683.201,1110.5 L683.201,1110.385 L748.991,1110.385 L748.982,1085.69 C748.982,1083.555 750.129,1081.601 752.017,1080.635 C753.204,1080.12 752.481,1080.376 754.23,1080.012 z" fill="rgba(0,0,0,0.152)" clip-path="url(#Clip_3)" filter="url(#Shadow_4)"/>
          <path d="M755.039,1092.235 C753.447,1092.341 752.157,1091.94 751.415,1091.483 L757.834,1081.05 L750.727,1091.027 L832.828,1149.513 C831.635,1148.667 830.717,1147.482 830.196,1146.216 C829.86,1145.401 829.742,1144.72 829.741,1144.183 L829.741,1144.167 C829.741,1143.633 829.856,1142.958 830.186,1142.146 C830.703,1140.875 831.62,1139.68 832.846,1138.806 L750.877,1197.697 C752.888,1196.257 755.536,1196.06 757.744,1197.203 C759.909,1198.323 761.276,1200.56 761.276,1203.027 L761.268,1176.537 C761.265,1169.773 755.781,1164.291 749.018,1164.291 L703.287,1164.291 C700.039,1164.291 696.923,1165.582 694.625,1167.879 L662.246,1200.258 L679.57,1200.258 L632.786,1153.474 L632.785,1170.799 L679.504,1124.089 L670.842,1115.427 L662.18,1124.089 L662.273,1124.181 C666.843,1128.751 674.178,1128.985 679.029,1124.714 C680.378,1123.526 682.046,1122.834 683.89,1122.73 C690.377,1122.365 695.451,1116.998 695.451,1110.5 L695.451,1110.385 L683.201,1110.385 L683.201,1122.635 L748.991,1122.635 C755.758,1122.635 761.244,1117.148 761.241,1110.381 L761.232,1085.685 C761.232,1088.087 759.864,1090.38 757.597,1091.54 L752.017,1080.635 L756.892,1091.873 C757.125,1091.772 757.468,1091.62 757.437,1091.634 C757.008,1091.817 756.495,1092.001 755.844,1092.161 C755.613,1092.218 755.449,1092.252 755.303,1092.279 C755.296,1092.28 755.302,1092.279 755.471,1092.249 C755.856,1092.18 756.237,1092.107 756.722,1092.006 L754.23,1080.012 L755.039,1092.235 z M753.421,1067.789 C752.855,1067.826 752.293,1067.903 751.738,1068.018 C751.535,1068.06 750.488,1068.248 749.982,1068.373 C749.151,1068.577 748.49,1068.813 747.798,1069.109 C747.665,1069.167 747.246,1069.352 747.142,1069.397 C746.903,1069.5 746.668,1069.611 746.437,1069.73 C740.421,1072.808 736.732,1078.991 736.732,1085.689 L736.741,1110.39 L748.991,1098.135 L683.201,1098.135 C676.435,1098.135 670.951,1103.62 670.951,1110.385 L670.951,1110.5 L683.201,1110.5 L682.512,1098.269 C675.153,1098.684 668.28,1101.536 662.841,1106.324 L670.935,1115.519 L679.597,1106.857 L679.504,1106.765 C674.721,1101.981 666.965,1101.981 662.181,1106.764 L615.463,1153.473 C610.678,1158.257 610.678,1166.014 615.462,1170.798 L662.246,1217.582 C667.03,1222.366 674.786,1222.366 679.57,1217.582 L711.949,1185.203 L703.287,1188.791 L749.018,1188.791 L736.768,1176.545 L736.776,1203.032 C736.777,1209.736 740.532,1215.882 746.484,1218.962 C752.472,1222.061 759.68,1221.525 765.154,1217.607 L847.105,1158.729 C852.057,1155.199 854.241,1149.828 854.241,1144.166 L854.241,1144.153 C854.227,1138.453 852.018,1133.085 847.019,1129.542 L764.942,1071.072 C764.718,1070.913 764.489,1070.761 764.254,1070.617 C760.999,1068.613 757.485,1067.52 753.421,1067.789 z" fill="rgba(0,0,0,0.152)" clip-path="url(#Clip_3)" filter="url(#Shadow_4)"/>
        </g>
      </g>
      <g>
        <path d="M839.613,1299.865 L757.68,1241.004 C755.942,1239.76 753.662,1239.597 751.774,1240.567 C749.882,1241.551 748.687,1243.5 748.687,1245.622 L748.678,1272.108 L702.943,1272.108 L546.134,1115.299 C542.729,1108.969 536.153,1104.62 528.487,1104.528 L528.487,1104.259 L453.505,1104.259 L453.505,1104.673 C448.997,1105.361 445.389,1108.705 444.34,1113.08 L444,1113.08 L444,1161.598 L444.216,1161.598 C445.209,1166.763 449.738,1170.666 455.19,1170.666 C455.984,1170.666 456.756,1170.578 457.506,1170.419 L507.69,1170.419 L670.503,1333.231 L670.595,1333.139 C673.917,1336.059 678.164,1337.894 682.866,1338.158 L682.866,1338.273 L748.656,1338.273 L748.647,1362.968 C748.647,1365.103 749.794,1367.062 751.682,1368.023 C753.574,1369.007 755.766,1368.848 757.499,1367.613 L839.6,1309.127 C841.1,1308.06 841.651,1306.344 841.651,1304.5 C841.651,1304.5 841.651,1304.5 841.651,1304.483 C841.647,1302.652 841.104,1300.927 839.613,1299.865 z" fill="#FFFFFF"/>
        <g>
          <path d="M528.487,1104.259 L528.487,1104.528 C536.153,1104.62 542.729,1108.969 546.134,1115.299 L702.943,1272.108 L748.678,1272.108 L748.687,1245.622 C748.687,1243.5 749.882,1241.551 751.774,1240.567 C753.662,1239.597 755.942,1239.76 757.68,1241.004 L839.613,1299.865 C841.104,1300.927 841.647,1302.652 841.651,1304.483 L841.651,1304.5 C841.651,1306.344 841.1,1308.06 839.6,1309.127 L757.499,1367.613 C755.766,1368.848 753.574,1369.007 751.682,1368.023 C749.794,1367.062 748.647,1365.103 748.647,1362.968 L748.656,1338.273 L682.866,1338.273 L682.866,1338.158 C678.164,1337.894 673.917,1336.059 670.595,1333.139 L670.503,1333.231 L507.69,1170.419 L457.505,1170.419 C456.756,1170.578 455.984,1170.666 455.19,1170.666 C449.738,1170.666 445.209,1166.763 444.216,1161.598 L444,1161.598 L444,1113.08 L444.34,1113.08 C445.389,1108.705 448.997,1105.361 453.505,1104.673 L453.505,1104.259 L528.487,1104.259 z" fill="rgba(0,0,0,0.152)" clip-path="url(#Clip_5)" filter="url(#Shadow_6)"/>
          <path d="M516.237,1104.259 L516.237,1104.528 C516.237,1111.235 521.632,1116.696 528.339,1116.777 C531.286,1116.812 533.924,1118.459 535.346,1121.102 C535.912,1122.154 536.628,1123.117 537.472,1123.961 L694.281,1280.77 C696.579,1283.067 699.695,1284.358 702.943,1284.358 L748.678,1284.358 C755.442,1284.358 760.926,1278.876 760.928,1272.112 L760.937,1245.626 C760.937,1248.088 759.572,1250.319 757.425,1251.436 C755.183,1252.589 752.549,1252.396 750.551,1250.965 L832.466,1309.813 C831.274,1308.964 830.358,1307.77 829.843,1306.502 C829.516,1305.7 829.402,1305.036 829.401,1304.512 L829.401,1304.5 C829.401,1303.958 829.519,1303.274 829.855,1302.455 C830.374,1301.189 831.288,1300.007 832.497,1299.146 L750.392,1357.635 C752.398,1356.206 755.134,1356.011 757.332,1357.154 L757.241,1357.107 C759.526,1358.271 760.897,1360.57 760.897,1362.968 L760.906,1338.277 C760.908,1331.51 755.423,1326.023 748.656,1326.023 L682.866,1326.023 L682.866,1338.273 L695.116,1338.273 L695.116,1338.158 C695.116,1331.66 690.042,1326.293 683.554,1325.928 C681.71,1325.824 680.039,1325.131 678.684,1323.939 C673.832,1319.673 666.501,1319.909 661.933,1324.477 L661.841,1324.569 L670.503,1333.231 L679.165,1324.569 L516.353,1161.757 C514.055,1159.46 510.939,1158.169 507.69,1158.169 L457.505,1158.169 C456.652,1158.169 455.801,1158.258 454.966,1158.435 C455.016,1158.425 455.095,1158.416 455.191,1158.416 C455.713,1158.416 456.149,1158.781 456.246,1159.286 C455.138,1153.518 450.09,1149.348 444.216,1149.348 L444,1149.348 L444,1161.598 L456.25,1161.598 L456.25,1113.08 L444,1113.08 L444,1125.33 L444.34,1125.33 C450.004,1125.33 454.93,1121.446 456.252,1115.938 C456.143,1116.389 455.786,1116.717 455.354,1116.783 C461.336,1115.87 465.755,1110.725 465.755,1104.673 L465.755,1104.259 L453.505,1104.259 L453.505,1116.509 L528.487,1116.509 L528.487,1104.259 L516.237,1104.259 z M540.737,1104.259 C540.737,1097.493 535.252,1092.009 528.487,1092.009 L453.505,1092.009 C446.74,1092.009 441.255,1097.493 441.255,1104.259 L441.255,1104.673 L453.505,1104.673 L451.656,1092.564 C442.24,1094.001 434.643,1100.99 432.428,1110.222 L444.34,1113.08 L444.34,1100.83 L444,1100.83 C437.234,1100.83 431.75,1106.315 431.75,1113.08 L431.75,1161.598 C431.75,1168.363 437.234,1173.848 444,1173.848 L444.216,1173.848 L444.216,1161.598 L432.186,1163.909 C434.294,1174.879 443.9,1182.916 455.19,1182.916 C456.832,1182.916 458.453,1182.74 460.044,1182.403 L457.505,1170.419 L457.505,1182.669 L507.69,1182.669 L499.028,1179.081 L661.841,1341.893 C666.625,1346.677 674.381,1346.677 679.165,1341.893 L679.257,1341.801 L670.595,1333.139 L662.507,1342.339 C667.95,1347.124 674.82,1349.975 682.177,1350.389 L682.866,1338.158 L670.616,1338.158 L670.616,1338.273 C670.616,1345.038 676.1,1350.523 682.866,1350.523 L748.656,1350.523 L736.406,1338.268 L736.397,1362.964 C736.397,1369.672 740.091,1375.867 746.122,1378.939 L751.682,1368.023 L746.031,1378.892 C752.009,1381.999 759.129,1381.494 764.608,1377.589 L846.708,1319.104 C851.695,1315.555 853.901,1310.178 853.901,1304.5 L853.901,1304.483 C853.888,1298.801 851.708,1293.443 846.725,1289.89 L764.827,1231.055 C759.342,1227.129 752.148,1226.601 746.174,1229.672 C740.187,1232.784 736.437,1238.917 736.437,1245.621 L736.428,1272.104 L748.678,1259.858 L702.943,1259.858 L711.605,1263.446 L554.796,1106.637 L546.134,1115.299 L556.922,1109.495 C551.337,1099.112 540.62,1092.424 528.635,1092.279 L528.487,1104.528 L540.737,1104.528 L540.737,1104.259 z" fill="rgba(0,0,0,0.152)" clip-path="url(#Clip_5)" filter="url(#Shadow_6)"/>
        </g>
      </g>
    </g>
  </g>
</svg>
